<svg width="18" height="18" viewBox="0 0 18 18" fill="none" xmlns="http://www.w3.org/2000/svg">
<path d="M9.15259 7.60089V10.5764H13.2706C13.0942 11.5375 12.5549 12.3521 11.7442 12.8974V14.8266H14.217C15.6655 13.4871 16.4999 11.5171 16.4999 9.17554C16.4999 8.63021 16.4525 8.10532 16.3609 7.60089H9.15259Z" fill="#507BBD"/>
<path d="M2.31396 10.4604V12.4509C3.57245 14.9629 6.16064 16.6875 9.1525 16.6875C11.2183 16.6875 12.9517 15.999 14.2169 14.8265L11.7441 12.8974C11.0589 13.3575 10.1837 13.6302 9.1525 13.6302C7.15793 13.6302 5.47204 12.2771 4.87163 10.4604H2.31396Z" fill="#32A751"/>
<path d="M2.31411 5.54906C1.79512 6.5852 1.5 7.76107 1.5 8.9983C1.5 10.2355 1.79512 11.4114 2.31411 12.4509L4.87178 10.4605C4.71913 10.0003 4.63094 9.50614 4.63094 8.9983C4.63094 8.49046 4.71913 7.99966 4.87178 7.53612V5.54565H2.31411V5.54906Z" fill="#F6B916"/>
<path d="M2.31421 5.54906L4.87188 7.53953C5.47228 5.72289 7.16156 4.36978 9.15274 4.36978C10.2755 4.36978 11.283 4.75833 12.0768 5.51839L14.2715 3.31319C12.9451 2.07256 11.2118 1.3125 9.15274 1.3125C6.16088 1.3125 3.57269 3.03371 2.31421 5.54906Z" fill="#E74233"/>
</svg>
