<svg width="18" height="18" viewBox="0 0 18 18" fill="none" xmlns="http://www.w3.org/2000/svg">
<path fill-rule="evenodd" clip-rule="evenodd" d="M8.81426 4.96154C9.52148 4.96154 10.408 4.50381 10.9359 3.89352C11.4141 3.34043 11.7627 2.56802 11.7627 1.79561C11.7627 1.69072 11.7527 1.58582 11.7328 1.5C10.9459 1.52861 9.99961 2.0054 9.43184 2.64431C8.98359 3.13064 8.5752 3.89352 8.5752 4.67546C8.5752 4.78989 8.59512 4.90432 8.60508 4.94247C8.65488 4.952 8.73457 4.96154 8.81426 4.96154ZM6.32402 16.5C7.29023 16.5 7.71855 15.8802 8.92383 15.8802C10.149 15.8802 10.418 16.4809 11.4937 16.4809C12.5496 16.4809 13.2568 15.5464 13.9242 14.631C14.6713 13.582 14.9801 12.5521 15 12.5044C14.9303 12.4854 12.9082 11.6939 12.9082 9.47203C12.9082 7.54577 14.502 6.678 14.5916 6.61125C13.5357 5.16179 11.932 5.12365 11.4937 5.12365C10.3084 5.12365 9.34219 5.81024 8.73457 5.81024C8.07715 5.81024 7.21055 5.16179 6.18457 5.16179C4.23223 5.16179 2.25 6.70661 2.25 9.6246C2.25 11.4364 2.98711 13.3531 3.89355 14.5928C4.67051 15.6418 5.34785 16.5 6.32402 16.5Z" fill="black"/>
</svg>
